<?xml version="1.0" standalone="no"?>
<svg xmlns="http://www.w3.org/2000/svg" version="1.1" width="496" height="358">
<path d="M 64,139 L 64,271 L 94,271 L 95,272 L 96,272 L 98,274 L 99,274 L 100,275 L 101,275 L 103,277 L 104,277 L 105,278 L 106,278 L 108,280 L 109,280 L 111,282 L 112,282 L 113,283 L 114,283 L 116,285 L 117,285 L 118,286 L 119,286 L 121,288 L 122,288 L 123,289 L 124,289 L 126,291 L 127,291 L 128,292 L 129,292 L 131,294 L 132,294 L 133,295 L 134,295 L 135,296 L 135,272 L 136,271 L 206,271 L 206,187 L 168,187 L 167,186 L 167,139 Z" fill="black" fill-rule="nonzero"/>
<path d="M 182,40 L 182,172 L 250,172 L 251,173 L 251,197 L 252,196 L 253,196 L 254,195 L 255,195 L 257,193 L 258,193 L 259,192 L 260,192 L 262,190 L 263,190 L 264,189 L 265,189 L 267,187 L 268,187 L 269,186 L 270,186 L 272,184 L 273,184 L 274,183 L 275,183 L 277,181 L 278,181 L 279,180 L 280,180 L 282,178 L 283,178 L 285,176 L 286,176 L 287,175 L 288,175 L 290,173 L 291,173 L 292,172 L 319,172 L 319,40 Z" fill="black" fill-rule="nonzero"/>
</svg>