<svg xmlns="http://www.w3.org/2000/svg" viewBox="0 0 636 650">
<path d="M 344,436 L 343,437 L 342,437 L 342,438 L 340,440 L 339,440 L 339,441 L 338,442 L 337,442 L 335,444 L 335,445 L 334,446 L 333,446 L 331,448 L 331,449 L 329,451 L 328,451 L 325,454 L 325,455 L 324,456 L 323,456 L 323,457 L 322,458 L 321,458 L 317,462 L 317,463 L 314,466 L 313,466 L 313,467 L 312,468 L 311,468 L 305,474 L 305,475 L 304,476 L 303,476 L 300,479 L 300,480 L 299,481 L 298,481 L 274,505 L 274,506 L 273,507 L 272,507 L 252,527 L 251,527 L 251,529 L 250,530 L 250,611 L 249,612 L 249,613 L 250,613 L 251,614 L 251,615 L 255,615 L 258,612 L 258,611 L 265,604 L 266,604 L 266,603 L 271,598 L 272,598 L 272,597 L 291,578 L 292,578 L 292,577 L 300,569 L 300,568 L 301,567 L 303,567 L 302,566 L 303,565 L 304,565 L 310,559 L 310,558 L 312,556 L 313,556 L 314,555 L 314,554 L 316,552 L 317,552 L 318,551 L 318,550 L 319,549 L 320,549 L 324,545 L 324,544 L 328,540 L 329,540 L 330,539 L 330,538 L 332,536 L 333,536 L 333,535 L 334,534 L 335,534 L 335,533 L 336,532 L 337,532 L 337,531 L 339,529 L 340,529 L 340,528 L 341,527 L 342,527 L 342,526 L 343,525 L 344,525 L 344,524 L 360,508 L 361,508 L 361,507 L 379,489 L 380,489 L 380,488 L 388,480 L 389,480 L 388,479 L 391,476 L 391,474 L 389,472 L 389,471 L 388,471 L 387,470 L 386,470 L 385,469 L 385,468 L 384,468 L 382,466 L 381,466 L 380,465 L 380,464 L 379,464 L 378,463 L 378,462 L 377,461 L 376,461 L 375,460 L 375,459 L 374,459 L 372,457 L 371,457 L 370,456 L 370,455 L 368,453 L 367,453 L 365,451 L 364,451 L 362,449 L 362,448 L 361,447 L 360,447 L 358,445 L 357,445 L 356,444 L 356,443 L 355,442 L 354,442 L 350,438 L 349,438 L 348,437 L 348,436 Z" fill="black"/>
<path d="M 249,189 L 248,190 L 247,190 L 244,193 L 244,194 L 243,195 L 242,195 L 241,196 L 241,197 L 240,198 L 239,198 L 235,202 L 234,202 L 234,204 L 233,205 L 232,205 L 232,206 L 231,207 L 230,207 L 227,210 L 227,211 L 224,214 L 223,214 L 222,215 L 222,216 L 218,220 L 217,220 L 215,222 L 215,223 L 208,230 L 207,230 L 207,231 L 205,233 L 204,233 L 204,234 L 203,235 L 202,235 L 202,236 L 200,238 L 199,238 L 195,242 L 195,243 L 182,256 L 181,256 L 181,257 L 167,271 L 167,272 L 166,273 L 165,273 L 162,276 L 162,277 L 160,279 L 159,279 L 157,281 L 157,282 L 156,283 L 155,283 L 155,284 L 154,285 L 153,285 L 149,289 L 149,290 L 148,291 L 147,291 L 147,292 L 146,293 L 145,293 L 145,294 L 144,295 L 143,295 L 143,296 L 135,304 L 134,304 L 134,305 L 122,317 L 122,321 L 123,320 L 124,321 L 124,322 L 125,323 L 126,323 L 128,325 L 128,326 L 129,326 L 137,334 L 138,334 L 144,340 L 145,340 L 152,347 L 153,347 L 155,349 L 156,349 L 157,350 L 157,351 L 160,354 L 161,354 L 162,355 L 162,356 L 163,357 L 164,357 L 165,358 L 165,359 L 166,359 L 169,362 L 170,362 L 171,363 L 171,364 L 172,365 L 173,365 L 180,372 L 181,372 L 186,377 L 187,377 L 191,381 L 191,382 L 192,382 L 194,384 L 195,384 L 199,388 L 199,389 L 200,389 L 202,391 L 203,391 L 204,392 L 204,393 L 207,396 L 208,396 L 213,401 L 214,401 L 223,410 L 224,410 L 229,415 L 230,415 L 235,420 L 236,420 L 237,421 L 237,422 L 238,422 L 239,423 L 239,424 L 240,424 L 244,428 L 245,428 L 246,429 L 246,430 L 247,431 L 248,431 L 250,433 L 251,433 L 253,435 L 253,436 L 254,436 L 256,438 L 257,438 L 258,437 L 260,437 L 260,436 L 269,427 L 270,427 L 272,425 L 272,424 L 274,422 L 275,422 L 277,420 L 277,419 L 278,418 L 279,418 L 282,415 L 283,415 L 283,414 L 287,410 L 288,410 L 288,409 L 290,407 L 291,407 L 291,406 L 294,403 L 295,403 L 295,402 L 300,397 L 300,396 L 301,395 L 301,394 L 300,393 L 300,392 L 298,390 L 297,390 L 295,388 L 294,388 L 293,387 L 293,386 L 292,386 L 291,385 L 291,384 L 289,384 L 288,383 L 288,382 L 287,382 L 286,381 L 286,380 L 285,380 L 282,377 L 281,377 L 274,370 L 273,370 L 272,369 L 272,368 L 271,368 L 266,363 L 265,363 L 261,359 L 260,359 L 258,357 L 258,356 L 257,356 L 255,354 L 255,353 L 254,354 L 253,353 L 253,352 L 252,352 L 251,351 L 251,350 L 250,349 L 249,349 L 246,346 L 245,346 L 244,345 L 244,344 L 243,344 L 241,342 L 240,342 L 239,341 L 239,340 L 238,340 L 232,334 L 231,334 L 225,328 L 224,328 L 217,321 L 216,321 L 214,319 L 213,319 L 212,318 L 212,315 L 213,314 L 213,313 L 214,312 L 215,312 L 215,311 L 216,310 L 217,310 L 217,309 L 219,307 L 220,307 L 220,306 L 222,304 L 223,304 L 223,303 L 224,302 L 225,302 L 225,301 L 227,299 L 228,299 L 228,298 L 229,297 L 230,297 L 230,296 L 231,295 L 232,295 L 232,294 L 233,293 L 234,293 L 234,292 L 236,290 L 237,290 L 237,289 L 238,288 L 239,288 L 239,287 L 242,284 L 244,284 L 244,282 L 245,281 L 246,281 L 246,280 L 248,278 L 249,278 L 251,276 L 251,275 L 253,273 L 254,273 L 254,272 L 255,271 L 256,271 L 258,269 L 258,268 L 259,267 L 260,267 L 260,266 L 261,265 L 262,265 L 264,263 L 265,263 L 265,261 L 266,260 L 267,260 L 267,259 L 268,258 L 269,258 L 270,257 L 270,256 L 271,255 L 272,255 L 273,254 L 273,253 L 275,251 L 276,251 L 276,250 L 277,249 L 278,249 L 281,246 L 281,245 L 282,244 L 283,244 L 283,243 L 285,241 L 286,241 L 288,239 L 288,238 L 289,237 L 290,237 L 290,236 L 291,235 L 292,235 L 293,234 L 293,233 L 296,230 L 296,228 L 295,227 L 295,226 L 294,225 L 293,225 L 286,218 L 285,218 L 282,215 L 282,214 L 281,213 L 280,213 L 275,208 L 274,208 L 267,201 L 266,201 L 265,200 L 265,199 L 264,199 L 260,195 L 259,195 L 258,194 L 258,193 L 257,193 L 254,190 L 253,190 L 252,189 Z" fill="black"/>
<path d="M 251,34 L 251,35 L 250,36 L 250,114 L 251,115 L 251,116 L 252,116 L 253,117 L 253,118 L 255,120 L 256,120 L 257,121 L 257,122 L 259,122 L 260,123 L 260,124 L 261,124 L 262,125 L 262,126 L 263,127 L 264,127 L 269,132 L 270,132 L 275,137 L 276,137 L 277,138 L 277,139 L 278,139 L 284,145 L 285,145 L 290,150 L 291,150 L 292,151 L 292,152 L 293,152 L 295,154 L 295,155 L 296,155 L 299,158 L 300,158 L 302,160 L 302,161 L 303,162 L 304,162 L 307,165 L 308,165 L 311,168 L 311,169 L 312,169 L 315,172 L 316,172 L 324,180 L 325,180 L 328,183 L 329,183 L 330,184 L 330,185 L 331,186 L 332,186 L 336,190 L 337,190 L 338,191 L 338,192 L 339,192 L 344,197 L 345,197 L 346,198 L 346,199 L 348,199 L 349,200 L 349,201 L 352,204 L 353,204 L 354,205 L 354,206 L 355,207 L 356,207 L 361,212 L 362,212 L 368,218 L 369,218 L 373,222 L 373,223 L 374,223 L 377,226 L 377,229 L 376,230 L 375,230 L 373,232 L 373,233 L 371,235 L 370,235 L 370,236 L 364,242 L 363,242 L 363,243 L 360,246 L 359,246 L 358,247 L 358,248 L 357,249 L 356,249 L 356,250 L 355,251 L 354,251 L 354,252 L 352,254 L 351,254 L 351,255 L 350,256 L 349,256 L 349,257 L 346,260 L 345,260 L 345,261 L 344,262 L 343,262 L 343,263 L 340,266 L 339,266 L 339,267 L 338,268 L 337,268 L 337,269 L 336,270 L 335,270 L 335,271 L 334,272 L 333,272 L 333,273 L 332,274 L 331,274 L 331,275 L 329,277 L 328,277 L 327,278 L 327,279 L 322,284 L 321,284 L 321,285 L 320,286 L 319,286 L 317,288 L 316,288 L 316,290 L 315,291 L 314,291 L 313,292 L 313,293 L 312,294 L 311,294 L 310,295 L 310,296 L 309,297 L 308,297 L 308,298 L 304,302 L 303,302 L 302,303 L 302,304 L 299,307 L 298,307 L 297,308 L 297,309 L 296,310 L 295,310 L 295,312 L 294,313 L 296,315 L 296,316 L 298,318 L 299,318 L 303,322 L 304,322 L 305,323 L 305,324 L 306,324 L 307,325 L 307,326 L 309,328 L 310,328 L 315,333 L 316,333 L 320,337 L 321,337 L 323,339 L 323,340 L 324,340 L 326,342 L 327,342 L 328,343 L 328,344 L 329,344 L 330,345 L 330,346 L 331,346 L 335,350 L 336,350 L 337,351 L 337,352 L 338,352 L 339,353 L 339,354 L 340,354 L 346,360 L 348,360 L 349,361 L 349,362 L 353,366 L 354,366 L 355,367 L 355,368 L 356,368 L 359,371 L 360,371 L 363,374 L 363,375 L 364,375 L 366,377 L 367,377 L 370,380 L 370,381 L 371,381 L 372,382 L 372,383 L 373,383 L 375,385 L 376,385 L 377,386 L 377,387 L 378,387 L 384,393 L 385,393 L 389,397 L 390,397 L 393,400 L 393,401 L 394,401 L 396,403 L 397,403 L 408,414 L 409,414 L 414,419 L 415,419 L 417,421 L 417,422 L 418,422 L 423,427 L 424,427 L 428,431 L 430,431 L 432,433 L 433,433 L 435,431 L 437,431 L 437,430 L 439,428 L 440,428 L 440,427 L 444,423 L 445,423 L 445,422 L 459,408 L 459,407 L 460,406 L 461,406 L 468,399 L 468,398 L 469,397 L 470,397 L 471,396 L 471,395 L 472,394 L 472,386 L 471,385 L 471,384 L 470,384 L 463,377 L 462,377 L 457,372 L 456,372 L 455,371 L 455,370 L 453,370 L 452,369 L 452,368 L 451,368 L 448,365 L 447,365 L 446,364 L 446,363 L 444,361 L 443,361 L 436,354 L 435,354 L 434,353 L 434,352 L 433,352 L 431,350 L 431,349 L 430,349 L 429,348 L 428,348 L 420,340 L 419,340 L 417,338 L 417,337 L 416,337 L 415,336 L 414,336 L 407,329 L 406,329 L 404,327 L 404,326 L 403,325 L 402,325 L 400,323 L 399,323 L 392,316 L 391,316 L 390,315 L 390,314 L 389,314 L 388,313 L 388,310 L 398,300 L 398,299 L 399,298 L 400,298 L 403,295 L 403,294 L 404,293 L 405,293 L 408,290 L 408,289 L 410,287 L 411,287 L 411,286 L 412,285 L 413,285 L 413,284 L 414,283 L 415,283 L 415,282 L 416,281 L 417,281 L 417,280 L 418,279 L 419,279 L 421,277 L 421,276 L 432,265 L 433,265 L 433,264 L 449,248 L 449,247 L 450,246 L 451,246 L 456,241 L 457,241 L 457,240 L 458,239 L 459,239 L 459,238 L 463,234 L 463,233 L 464,232 L 465,232 L 465,231 L 466,230 L 467,230 L 467,229 L 469,227 L 469,225 L 468,224 L 468,223 L 466,221 L 466,220 L 465,220 L 464,219 L 464,218 L 462,218 L 461,217 L 461,216 L 460,216 L 459,215 L 459,214 L 456,211 L 455,211 L 454,210 L 454,209 L 453,209 L 442,198 L 441,198 L 433,190 L 432,190 L 427,185 L 426,185 L 425,184 L 425,183 L 424,183 L 418,177 L 417,177 L 415,175 L 415,174 L 414,174 L 409,169 L 408,169 L 402,163 L 401,163 L 395,157 L 394,157 L 391,154 L 391,153 L 390,153 L 387,150 L 386,150 L 376,140 L 375,140 L 373,138 L 373,137 L 372,136 L 371,136 L 368,133 L 367,133 L 366,132 L 366,131 L 364,129 L 363,129 L 357,123 L 356,123 L 353,120 L 352,120 L 351,119 L 351,118 L 349,116 L 348,116 L 346,114 L 345,114 L 342,111 L 342,110 L 341,110 L 340,109 L 340,108 L 339,108 L 338,107 L 338,106 L 336,106 L 335,105 L 335,104 L 332,101 L 331,101 L 325,95 L 324,95 L 322,93 L 322,92 L 321,91 L 320,91 L 318,89 L 317,89 L 316,88 L 316,87 L 313,84 L 312,84 L 308,80 L 307,80 L 306,79 L 306,78 L 305,77 L 304,77 L 299,72 L 299,71 L 298,71 L 297,70 L 296,70 L 295,69 L 295,68 L 294,68 L 293,67 L 293,66 L 292,66 L 290,64 L 289,64 L 288,63 L 288,62 L 287,62 L 286,61 L 286,60 L 285,60 L 281,56 L 280,56 L 279,55 L 279,54 L 278,54 L 270,46 L 269,46 L 267,44 L 267,43 L 266,42 L 265,42 L 263,40 L 263,39 L 262,40 L 260,38 L 260,37 L 259,36 L 258,36 L 256,34 Z" fill="black"/>
</svg>