<svg xmlns="http://www.w3.org/2000/svg" viewBox="0 0 320 320">
<path d="M 211,275 L 211,282 L 212,283 L 213,282 L 213,279 L 215,277 L 215,275 Z" fill="black"/>
<path d="M 123,275 L 123,282 L 125,282 L 125,279 L 127,277 L 128,278 L 128,282 L 131,282 L 131,278 L 132,277 L 133,278 L 133,282 L 135,282 L 136,281 L 136,278 L 135,277 L 135,276 L 134,275 L 132,275 L 131,276 L 130,275 L 129,275 L 128,276 L 127,275 Z" fill="black"/>
<path d="M 198,274 L 197,275 L 197,278 L 196,279 L 195,278 L 195,276 L 194,275 L 192,275 L 191,276 L 190,275 L 189,275 L 188,276 L 189,277 L 188,278 L 188,282 L 191,282 L 191,281 L 190,280 L 191,279 L 191,278 L 192,277 L 193,278 L 193,282 L 195,282 L 195,280 L 196,279 L 198,281 L 198,282 L 201,282 L 201,281 L 200,280 L 200,278 L 201,277 L 202,278 L 202,279 L 203,280 L 203,281 L 204,282 L 208,282 L 209,281 L 208,280 L 209,279 L 209,277 L 208,276 L 208,275 L 205,275 L 204,276 L 203,276 L 203,277 L 202,278 L 201,277 L 201,275 L 200,275 L 199,274 Z" fill="black"/>
<path d="M 171,273 L 171,282 L 172,283 L 173,282 L 173,279 L 175,277 L 176,278 L 176,282 L 178,282 L 178,281 L 179,280 L 180,281 L 180,282 L 186,282 L 186,275 L 185,275 L 184,276 L 184,279 L 183,280 L 182,279 L 182,276 L 181,275 L 180,275 L 178,277 L 176,275 L 174,275 L 173,274 L 173,273 Z" fill="black"/>
<path d="M 163,273 L 164,274 L 163,275 L 160,275 L 158,277 L 157,277 L 155,275 L 150,275 L 150,282 L 152,282 L 152,278 L 153,277 L 154,278 L 154,280 L 155,281 L 155,282 L 157,282 L 157,281 L 158,280 L 159,281 L 159,282 L 165,282 L 166,281 L 166,274 L 165,273 Z" fill="black"/>
<path d="M 146,272 L 145,273 L 142,273 L 141,274 L 141,275 L 140,276 L 140,277 L 141,278 L 141,282 L 142,283 L 143,282 L 143,278 L 144,277 L 146,279 L 146,280 L 145,281 L 145,282 L 147,282 L 148,281 L 148,276 L 147,275 L 147,274 L 148,273 L 147,273 Z" fill="black"/>
<path d="M 107,272 L 106,273 L 106,282 L 112,282 L 114,280 L 115,281 L 115,282 L 116,282 L 117,283 L 118,282 L 121,282 L 121,276 L 120,275 L 116,275 L 115,276 L 115,277 L 116,278 L 115,279 L 114,279 L 113,278 L 113,276 L 112,276 L 111,275 L 109,275 L 108,274 L 108,273 Z" fill="black"/>
<path d="M 172,270 Z" fill="black"/>
<path d="M 205,254 L 203,256 L 202,256 L 201,257 L 201,258 L 200,259 L 200,262 L 201,263 L 201,265 L 202,266 L 203,266 L 204,267 L 205,267 L 206,268 L 209,268 L 210,267 L 211,267 L 214,264 L 214,258 L 211,255 L 210,255 L 209,254 Z" fill="black"/>
<path d="M 187,254 L 186,255 L 186,267 L 187,268 L 188,268 L 189,267 L 189,262 L 190,261 L 193,264 L 193,265 L 196,268 L 198,268 L 198,254 L 196,254 L 195,255 L 195,260 L 194,261 L 192,259 L 192,258 L 190,256 L 190,255 L 189,254 Z" fill="black"/>
<path d="M 158,254 L 158,268 L 160,268 L 161,267 L 161,265 L 162,264 L 163,264 L 165,266 L 165,267 L 166,268 L 168,268 L 169,267 L 170,267 L 171,268 L 172,267 L 174,267 L 174,266 L 175,265 L 179,265 L 182,268 L 183,268 L 184,267 L 184,266 L 183,265 L 183,263 L 182,262 L 182,261 L 181,260 L 181,258 L 180,257 L 180,256 L 178,254 L 176,254 L 176,255 L 174,257 L 174,259 L 173,260 L 173,261 L 172,262 L 172,263 L 171,264 L 171,266 L 170,267 L 167,264 L 167,263 L 168,262 L 169,262 L 169,257 L 167,255 L 166,255 L 165,254 Z" fill="black"/>
<path d="M 146,254 L 145,255 L 145,266 L 144,267 L 145,267 L 146,268 L 155,268 L 156,267 L 155,266 L 155,265 L 149,265 L 148,264 L 148,263 L 149,262 L 150,263 L 151,262 L 155,262 L 155,261 L 154,260 L 150,260 L 148,258 L 149,257 L 155,257 L 155,255 L 154,254 Z" fill="black"/>
<path d="M 121,254 L 121,256 L 120,257 L 121,258 L 121,262 L 120,263 L 121,264 L 120,265 L 121,266 L 121,268 L 127,268 L 128,267 L 129,268 L 130,268 L 131,267 L 131,265 L 125,265 L 124,264 L 124,263 L 125,262 L 130,262 L 130,260 L 129,259 L 128,260 L 125,260 L 124,259 L 124,258 L 125,257 L 130,257 L 131,256 L 132,256 L 133,257 L 135,257 L 136,258 L 136,267 L 137,268 L 138,268 L 139,267 L 139,263 L 140,262 L 139,261 L 139,260 L 140,259 L 140,258 L 141,257 L 143,257 L 143,255 L 142,254 L 133,254 L 132,255 L 131,255 L 130,254 Z" fill="black"/>
<path d="M 108,254 L 107,255 L 107,267 L 108,268 L 111,268 L 112,267 L 117,267 L 118,266 L 118,262 L 117,261 L 117,260 L 118,259 L 118,256 L 117,255 L 116,255 L 115,254 Z" fill="black"/>
<path d="M 171,207 Z" fill="black"/>
<path d="M 161,177 Z" fill="black"/>
<path d="M 176,168 L 173,171 L 173,172 L 172,173 L 171,173 L 170,174 L 170,175 L 169,176 L 168,176 L 144,200 L 144,203 L 143,204 L 143,223 L 144,224 L 144,225 L 143,226 L 143,229 L 144,230 L 144,231 L 145,231 L 146,230 L 146,229 L 150,225 L 151,225 L 151,224 L 193,182 L 187,176 L 186,176 L 185,175 L 185,174 L 184,174 L 180,170 L 179,170 L 177,168 Z" fill="black"/>
<path d="M 164,116 Z" fill="black"/>
<path d="M 211,107 Z" fill="black"/>
<path d="M 143,81 L 109,115 L 109,116 L 107,118 L 106,118 L 106,119 L 104,121 L 103,121 L 103,122 L 100,125 L 99,125 L 99,127 L 100,128 L 100,129 L 101,129 L 107,135 L 108,135 L 116,143 L 117,143 L 118,144 L 118,145 L 119,145 L 124,150 L 125,150 L 126,151 L 126,152 L 127,153 L 128,153 L 134,159 L 135,159 L 136,160 L 136,161 L 137,161 L 141,165 L 142,165 L 145,168 L 147,168 L 161,154 L 161,153 L 158,150 L 157,150 L 151,144 L 150,144 L 149,143 L 149,142 L 148,142 L 144,138 L 143,138 L 137,132 L 136,132 L 132,128 L 131,128 L 130,127 L 130,125 L 159,96 L 159,94 L 157,92 L 156,92 L 149,85 L 148,85 L 144,81 Z" fill="black"/>
<path d="M 144,27 L 144,29 L 143,30 L 143,47 L 144,48 L 144,49 L 143,50 L 143,51 L 144,52 L 144,55 L 150,61 L 151,61 L 158,68 L 159,68 L 166,75 L 167,75 L 174,82 L 175,82 L 179,86 L 180,86 L 182,88 L 182,89 L 183,89 L 188,94 L 188,95 L 170,113 L 169,112 L 170,113 L 159,124 L 159,125 L 162,128 L 163,128 L 170,135 L 171,135 L 172,136 L 172,137 L 173,137 L 177,141 L 178,141 L 185,148 L 186,148 L 192,154 L 193,154 L 198,159 L 199,159 L 200,160 L 200,161 L 201,162 L 202,162 L 206,166 L 209,166 L 219,156 L 219,155 L 220,154 L 221,154 L 221,153 L 222,152 L 222,151 L 218,147 L 217,147 L 211,141 L 210,141 L 209,140 L 209,139 L 208,139 L 203,134 L 202,134 L 196,128 L 195,128 L 191,124 L 220,95 L 220,93 L 215,88 L 214,88 L 213,87 L 213,86 L 212,86 L 208,82 L 209,81 L 208,82 L 206,80 L 205,80 L 197,72 L 196,72 L 195,71 L 195,70 L 194,70 L 188,64 L 187,64 L 185,62 L 185,61 L 184,61 L 179,56 L 178,56 L 172,50 L 171,50 L 170,49 L 170,48 L 169,47 L 168,47 L 161,40 L 160,40 L 154,34 L 155,33 L 154,34 L 153,34 L 146,27 Z" fill="black"/>
</svg>