<?xml version="1.0" standalone="no"?>
<!DOCTYPE svg PUBLIC "-//W3C//DTD SVG 20010904//EN"
 "http://www.w3.org/TR/2001/REC-SVG-20010904/DTD/svg10.dtd">
<svg version="1.0" xmlns="http://www.w3.org/2000/svg"
 width="300.000000pt" height="78.000000pt" viewBox="0 0 300.000000 78.000000"
 preserveAspectRatio="xMidYMid meet">
<metadata>
Created by potrace 1.10, written by Peter Selinger 2001-2011
</metadata>
<g transform="translate(0.000000,78.000000) scale(0.100000,-0.100000)"
fill="#000000" stroke="none">
<path d="M350 627 c0 -30 7 -41 55 -78 30 -24 54 -48 55 -54 0 -5 -16 -25 -35
-45 l-35 -36 61 -53 c60 -53 61 -53 80 -35 18 19 18 20 -25 54 l-44 35 39 40
39 41 -72 64 c-40 36 -82 73 -95 83 l-23 18 0 -34z"/>
<path d="M774 601 c-2 -2 -4 -58 -4 -123 l0 -118 75 0 c85 0 123 13 132 47 6
26 -11 73 -26 73 -6 0 -2 13 7 30 15 27 16 32 2 57 -15 26 -21 28 -99 33 -45
3 -85 3 -87 1z m142 -56 c10 -26 -16 -46 -55 -43 -34 3 -41 14 -32 53 1 3 19
5 41 5 27 0 43 -5 46 -15z m11 -101 c8 -22 -22 -44 -62 -44 -39 0 -43 4 -37
35 4 22 9 25 48 25 32 0 46 -5 51 -16z"/>
<path d="M1020 483 l0 -123 90 0 c90 0 90 0 90 26 0 25 -1 25 -62 23 -62 -3
-63 -2 -66 25 l-4 29 56 -5 c55 -5 56 -4 56 22 0 25 -2 26 -52 25 -50 0 -53 1
-53 25 0 24 3 25 60 25 56 0 60 2 60 24 0 23 -3 24 -88 25 l-87 1 0 -122z"/>
<path d="M1223 593 c-11 -28 5 -42 41 -36 l36 6 0 -102 0 -101 28 0 27 0 0 97
0 98 38 -2 c34 -2 37 0 37 25 l0 27 -101 0 c-72 0 -103 -4 -106 -12z"/>
<path d="M1464 601 c-2 -2 -4 -58 -4 -123 l0 -118 90 0 c89 0 90 0 90 25 0 24
-2 25 -66 25 -62 0 -65 1 -62 23 3 19 10 22 61 25 54 3 58 5 55 25 -3 19 -9
22 -58 22 -52 0 -55 1 -55 25 0 24 3 25 60 25 56 0 60 2 60 24 0 23 -3 24 -83
25 -46 0 -86 -1 -88 -3z"/>
<path d="M1680 483 l0 -123 30 0 c30 0 30 1 24 40 -6 38 -5 40 19 40 20 0 32
-9 49 -40 20 -34 28 -40 56 -40 l33 0 -30 44 c-30 43 -30 44 -11 61 28 25 27
86 -1 111 -15 14 -41 20 -95 24 l-74 5 0 -122z m121 67 c42 -23 12 -70 -45
-70 -24 0 -26 4 -26 40 0 36 2 40 26 40 14 0 34 -5 45 -10z"/>
<path d="M1995 599 c-3 -3 -23 -53 -45 -110 -23 -57 -44 -110 -47 -116 -3 -9
5 -13 24 -13 21 0 33 7 40 23 9 19 16 22 61 19 39 -3 51 -8 55 -23 4 -13 14
-19 35 -19 l30 0 -40 103 c-21 56 -42 111 -47 121 -7 19 -57 30 -66 15z m48
-107 l15 -42 -35 0 c-37 0 -37 0 -11 69 10 29 13 27 31 -27z"/>
<path d="M2180 483 l0 -123 28 0 c26 0 27 1 24 48 -2 27 -2 61 0 76 3 26 7 22
53 -48 42 -64 54 -76 78 -76 l27 0 0 125 0 125 -25 0 c-23 0 -24 -2 -27 -82
l-3 -81 -49 75 c-39 61 -54 77 -77 80 l-29 5 0 -124z"/>
<path d="M2505 600 c-11 -4 -31 -20 -45 -34 -32 -36 -35 -121 -4 -163 48 -65
155 -62 201 6 71 105 -36 239 -152 191z m86 -51 c26 -14 41 -55 34 -91 -16
-72 -127 -66 -135 7 -4 39 0 55 20 75 22 22 51 26 81 9z"/>
<path d="M288 466 c-27 -29 -48 -55 -48 -58 0 -3 25 -27 55 -53 53 -45 57 -47
75 -30 18 16 18 18 -18 48 -20 17 -39 33 -41 34 -3 2 13 21 34 43 32 33 36 42
25 55 -19 23 -31 17 -82 -39z"/>
<path d="M1425 277 c-19 -25 -22 -34 -12 -42 6 -5 11 -25 9 -42 -2 -25 1 -33
12 -33 12 0 16 10 16 35 0 24 5 35 15 35 8 0 15 7 15 15 0 8 -7 15 -15 15 -8
0 -15 5 -15 10 0 6 7 10 15 10 19 0 19 16 0 23 -9 4 -24 -6 -40 -26z"/>
<path d="M388 259 c-30 -31 -38 -48 -38 -77 l0 -36 60 59 c56 55 59 60 43 77
-9 10 -19 18 -22 17 -3 0 -23 -18 -43 -40z"/>
<path d="M946 293 c-3 -3 -6 -34 -6 -69 l0 -62 41 2 c54 3 73 32 48 78 -8 15
-17 19 -39 15 -23 -5 -27 -3 -23 12 5 19 -9 35 -21 24z m62 -81 c3 -17 -2 -22
-17 -22 -14 0 -21 6 -21 18 0 38 33 41 38 4z"/>
<path d="M1730 276 c0 -19 -4 -23 -20 -19 -28 7 -50 -14 -50 -48 0 -32 20 -46
68 -47 l32 -1 0 64 c0 47 -4 64 -15 69 -11 4 -15 -1 -15 -18z m-2 -64 c3 -16
-2 -22 -17 -22 -26 0 -36 17 -20 36 16 19 33 13 37 -14z"/>
<path d="M1820 225 c0 -50 3 -65 14 -65 10 0 16 13 18 38 4 52 32 51 36 -1 2
-24 8 -37 15 -34 7 2 10 19 8 43 -4 51 -8 57 -37 51 -18 -3 -24 0 -24 14 0 11
-7 19 -15 19 -12 0 -15 -14 -15 -65z"/>
<path d="M2174 271 c4 -5 0 -11 -6 -14 -10 -4 -11 -7 0 -18 6 -7 12 -25 12
-40 0 -19 6 -30 20 -34 28 -9 48 5 27 19 -20 16 -26 50 -8 51 8 0 16 6 19 13
2 6 -3 12 -12 12 -9 0 -16 5 -16 10 0 6 -9 10 -21 10 -11 0 -18 -4 -15 -9z"/>
<path d="M1071 247 c-17 -17 -13 -65 7 -75 9 -5 31 -8 47 -8 28 1 30 3 33 47
l3 47 -39 0 c-22 0 -44 -4 -51 -11z m59 -37 c0 -22 -24 -32 -39 -17 -15 15
-14 34 2 40 20 7 37 -4 37 -23z"/>
<path d="M1180 208 c0 -57 23 -64 28 -10 2 20 9 32 18 32 8 0 14 6 14 13 0 8
-12 14 -30 14 -29 0 -30 -2 -30 -49z"/>
<path d="M1260 208 c0 -26 5 -48 10 -48 6 0 10 13 10 29 0 59 43 61 44 2 1
-43 26 -37 26 7 0 46 -13 59 -57 59 -33 0 -33 -1 -33 -49z"/>
<path d="M1500 210 c0 -27 5 -50 10 -50 6 0 10 23 10 50 0 28 -4 50 -10 50 -5
0 -10 -22 -10 -50z"/>
<path d="M1545 211 c1 -33 5 -46 15 -46 10 0 14 9 13 30 -2 28 13 49 29 39 4
-3 8 -21 8 -40 0 -24 5 -34 15 -34 11 0 15 11 15 39 0 45 -12 58 -60 58 l-35
1 0 -47z"/>
<path d="M1940 221 c0 -45 13 -58 58 -58 32 0 32 1 32 49 0 36 -4 48 -15 48
-10 0 -15 -10 -15 -33 0 -38 -6 -48 -26 -40 -8 3 -14 19 -14 39 0 19 -4 34
-10 34 -5 0 -10 -17 -10 -39z"/>
<path d="M2050 209 c0 -36 4 -49 14 -49 10 0 16 13 18 38 4 50 33 52 34 2 0
-24 5 -35 15 -35 14 0 15 23 4 72 -4 18 -12 22 -45 21 l-40 0 0 -49z"/>
<path d="M2266 244 c-41 -40 3 -99 58 -78 25 9 19 27 -7 21 -12 -4 -29 -2 -37
3 -11 7 -3 10 28 10 46 0 50 5 26 38 -18 26 -46 28 -68 6z"/>
<path d="M2360 209 c0 -37 4 -49 15 -49 10 0 15 11 15 35 0 28 4 35 20 35 11
0 20 6 20 14 0 9 -12 14 -35 14 l-35 0 0 -49z"/>
</g>
</svg>
