<svg xmlns="http://www.w3.org/2000/svg" viewBox="0 0 165 39">
<path d="M 99,24 L 98,25 L 98,30 L 100,30 L 100,29 L 101,28 L 102,29 L 102,30 L 103,30 L 104,29 L 106,31 L 107,30 L 111,30 L 111,28 L 112,27 L 113,28 L 113,30 L 114,30 L 114,28 L 115,27 L 116,28 L 116,30 L 117,30 L 118,31 L 119,30 L 121,30 L 122,31 L 123,30 L 126,30 L 126,28 L 127,27 L 128,27 L 128,26 L 125,26 L 124,27 L 123,26 L 118,26 L 117,25 L 116,25 L 115,26 L 107,26 L 107,28 L 106,29 L 105,28 L 105,26 L 104,26 L 103,27 L 102,26 L 101,26 Z" fill="black"/>
<path d="M 83,24 L 83,30 L 86,30 L 86,28 L 87,27 L 88,28 L 88,30 L 92,30 L 93,31 L 94,30 L 95,30 L 95,24 L 94,24 L 94,25 L 93,26 L 92,26 L 91,27 L 90,27 L 89,26 L 85,26 L 84,25 L 84,24 Z" fill="black"/>
<path d="M 55,24 L 55,30 L 57,30 L 58,31 L 59,30 L 60,30 L 61,29 L 63,31 L 64,30 L 68,30 L 68,28 L 69,27 L 70,27 L 71,28 L 71,30 L 72,30 L 72,28 L 73,27 L 74,28 L 74,30 L 75,30 L 76,29 L 75,28 L 75,26 L 62,26 L 61,27 L 60,27 L 59,26 L 58,26 L 56,24 Z" fill="black"/>
<path d="M 30,24 L 26,28 L 26,31 L 27,31 L 32,26 L 32,25 L 31,24 Z" fill="black"/>
<path d="M 81,23 L 80,24 L 79,24 L 79,25 L 78,26 L 78,27 L 79,28 L 79,30 L 80,30 L 81,29 Z" fill="black"/>
<path d="M 26,13 L 21,18 L 21,19 L 24,22 L 25,22 L 27,24 L 28,23 L 28,21 L 25,18 L 28,15 L 28,14 L 27,13 Z" fill="black"/>
<path d="M 132,9 L 131,10 L 130,10 L 129,11 L 129,12 L 128,13 L 128,17 L 129,18 L 129,19 L 131,21 L 138,21 L 139,20 L 139,19 L 140,18 L 140,17 L 141,16 L 141,14 L 140,13 L 140,12 L 139,11 L 139,10 L 138,10 L 137,9 Z" fill="black"/>
<path d="M 81,9 L 81,21 L 90,21 L 90,19 L 91,18 L 92,19 L 92,21 L 94,21 L 94,18 L 95,17 L 98,20 L 98,21 L 105,21 L 107,19 L 110,19 L 111,20 L 111,21 L 114,21 L 115,20 L 116,21 L 118,21 L 119,20 L 119,17 L 120,16 L 122,18 L 122,19 L 123,20 L 123,21 L 126,21 L 126,9 L 124,9 L 123,10 L 123,13 L 122,14 L 121,13 L 121,12 L 120,11 L 120,10 L 119,9 L 116,9 L 116,19 L 115,20 L 113,18 L 113,17 L 112,16 L 112,14 L 111,13 L 111,11 L 110,10 L 110,9 L 107,9 L 106,10 L 106,11 L 105,12 L 105,15 L 104,16 L 104,17 L 103,18 L 103,19 L 102,20 L 99,17 L 101,15 L 101,11 L 100,10 L 99,10 L 98,9 L 92,9 L 92,17 L 90,19 L 85,19 L 84,18 L 85,17 L 88,17 L 89,16 L 89,14 L 85,14 L 84,13 L 85,12 L 89,12 L 90,11 L 90,10 L 89,9 Z" fill="black"/>
<path d="M 59,9 L 59,21 L 68,21 L 68,19 L 63,19 L 62,18 L 63,17 L 66,17 L 67,16 L 67,14 L 63,14 L 62,13 L 63,12 L 67,12 L 68,11 L 69,11 L 70,12 L 72,12 L 73,13 L 73,21 L 76,21 L 76,13 L 77,12 L 79,12 L 79,9 L 70,9 L 69,10 L 68,9 Z" fill="black"/>
<path d="M 47,9 L 47,21 L 56,21 L 57,20 L 57,16 L 56,15 L 56,14 L 57,13 L 57,11 L 56,10 L 55,10 L 54,9 Z" fill="black"/>
<path d="M 27,6 L 26,7 L 26,10 L 27,11 L 28,11 L 31,14 L 31,15 L 28,18 L 33,23 L 35,23 L 36,22 L 36,21 L 33,18 L 36,15 L 36,14 L 35,14 L 34,13 L 34,12 L 33,12 Z" fill="black"/>
</svg>